<?xml version="1.0" standalone="no"?>
<!DOCTYPE svg PUBLIC "-//W3C//DTD SVG 20010904//EN"
 "http://www.w3.org/TR/2001/REC-SVG-20010904/DTD/svg10.dtd">
<svg version="1.0" xmlns="http://www.w3.org/2000/svg"
 width="286.000000pt" height="302.000000pt" viewBox="0 0 286.000000 302.000000"
 preserveAspectRatio="xMidYMid meet">

<g transform="translate(0.000000,302.000000) scale(0.100000,-0.100000)"
fill="#000000" stroke="none">
<path d="M1215 2984 c-582 -90 -1031 -520 -1152 -1104 -24 -118 -24 -392 1
-510 53 -256 158 -466 328 -661 l76 -85 163 17 c90 10 196 18 234 19 80 1 84
-5 -50 82 -102 67 -216 182 -288 289 -122 184 -177 368 -177 594 0 183 34 331
110 479 157 306 438 514 780 577 85 16 278 16 360 0 526 -98 890 -531 890
-1056 0 -401 -189 -720 -560 -944 l-35 -21 50 0 c28 0 133 -9 235 -20 l185
-19 58 62 c175 186 295 416 349 665 16 76 21 134 21 272 1 187 -10 264 -60
425 -133 423 -485 767 -912 894 -197 59 -414 75 -606 45z m168 -143 c20 -38
37 -72 37 -75 0 -13 -38 -5 -44 9 -3 10 -19 15 -46 15 -33 0 -40 -3 -40 -20 0
-14 -7 -20 -21 -20 -13 0 -19 5 -17 13 3 6 15 42 27 80 19 55 26 67 44 67 17
0 31 -17 60 -69z m222 16 l30 -52 9 48 c10 48 13 52 33 39 9 -6 9 -26 2 -82
-6 -41 -12 -76 -13 -78 -10 -9 -36 16 -63 60 l-31 52 -7 -47 c-6 -38 -11 -47
-27 -47 -16 0 -19 5 -15 23 3 12 9 48 12 80 9 74 29 76 70 4z m-544 -54 c16
-61 24 -66 77 -49 19 6 23 5 20 -9 -2 -15 -68 -44 -100 -45 -9 0 -50 139 -43
150 15 24 32 6 46 -47z m-163 -58 c29 -60 28 -89 -4 -114 -33 -26 -76 -27 -95
-3 -25 30 -59 99 -52 106 15 14 30 3 53 -39 26 -47 40 -58 65 -49 21 9 19 51
-6 90 -11 19 -18 38 -14 44 13 21 32 9 53 -35z m1160 6 c10 -6 6 -20 -18 -61
-32 -55 -30 -72 11 -85 20 -7 27 -35 8 -35 -15 0 -100 51 -97 59 14 30 74 131
78 131 3 0 11 -4 18 -9z m-1404 -142 c34 -27 33 -51 -4 -87 -25 -26 -27 -32
-15 -42 12 -10 13 -16 3 -27 -10 -12 -20 -5 -64 44 -50 55 -52 59 -36 77 17
19 72 56 83 56 4 0 18 -9 33 -21z m1639 -24 c27 -26 36 -55 17 -55 -6 0 -21
12 -34 27 -33 39 -53 22 -26 -23 25 -44 26 -70 1 -84 -26 -13 -62 1 -90 36
-16 20 -19 30 -11 38 8 8 17 3 32 -16 21 -29 48 -37 48 -15 0 7 -7 22 -15 33
-18 23 -19 56 -3 72 19 19 51 14 81 -13z m-1813 -187 c33 -23 60 -45 60 -49 0
-19 -23 -18 -56 2 l-35 21 15 -37 c21 -48 13 -58 -38 -50 -43 7 -42 4 6 -32
22 -17 25 -23 15 -32 -10 -8 -28 0 -75 32 -34 23 -60 47 -59 52 2 6 29 11 60
13 61 3 66 10 42 52 -17 29 -19 70 -5 70 6 0 38 -19 70 -42z m1999 -25 c15
-30 14 -53 -6 -75 -24 -27 -58 -22 -87 13 -22 26 -29 29 -42 18 -12 -10 -18
-9 -31 3 -14 15 -13 17 8 29 13 7 44 27 68 45 l43 34 18 -23 c9 -12 22 -32 29
-44z m-2194 -232 c28 -10 58 -30 69 -44 18 -25 18 -26 0 -64 -23 -46 -47 -52
-121 -27 -55 19 -58 21 -45 42 7 10 16 9 46 -3 51 -22 90 -16 94 12 3 19 -6
27 -52 47 -42 19 -54 29 -50 40 3 9 7 16 8 16 0 0 24 -9 51 -19z m2413 -293
c-3 -47 -6 -54 -31 -62 -36 -13 -59 1 -73 45 -9 24 -18 34 -32 33 -12 0 -23 7
-25 18 -5 18 -7 18 103 36 55 10 62 1 58 -70z m-2445 6 c44 25 47 26 47 7 0
-11 -14 -28 -34 -41 -37 -22 -39 -50 -5 -50 12 0 19 -7 19 -20 0 -18 -4 -20
-42 -14 -96 14 -113 20 -116 38 -4 17 1 18 38 12 l42 -7 -31 40 c-17 21 -31
49 -31 62 0 22 3 21 34 -15 l33 -40 46 28z m2477 -244 c0 -63 -2 -70 -20 -70
-15 0 -20 7 -20 25 0 24 -3 25 -60 25 -53 0 -60 2 -60 20 0 18 7 20 65 20 63
0 65 1 65 25 0 16 6 25 15 25 12 0 15 -14 15 -70z m-2479 -44 c-28 -30 -26
-46 4 -46 18 0 25 -5 25 -20 0 -15 -7 -20 -27 -20 -16 0 -52 -3 -80 -6 l-53
-7 0 60 c0 32 5 64 12 71 15 15 53 15 78 0 16 -11 23 -10 37 5 16 16 18 16 21
2 2 -9 -6 -27 -17 -39z m2387 -143 c83 -19 92 -38 27 -60 -22 -7 -46 -16 -54
-18 -11 -4 -3 -17 27 -48 57 -58 46 -69 -45 -49 -57 13 -73 21 -73 35 0 18 7
18 75 0 16 -4 13 2 -12 29 -18 19 -33 37 -33 41 0 3 19 12 42 19 l42 13 -39
11 c-23 6 -41 18 -43 27 -4 21 -3 21 86 0z m-2324 -107 c9 -30 16 -56 16 -59
0 -5 -126 -38 -144 -38 -5 0 -17 25 -27 55 -16 53 -16 56 1 56 12 0 20 -11 24
-35 5 -27 12 -35 28 -35 14 0 18 5 14 16 -17 44 -18 64 -3 64 9 0 18 -13 22
-30 8 -35 16 -42 34 -30 11 6 11 15 2 40 -14 43 -14 50 3 50 9 0 21 -21 30
-54z m2224 -213 c67 -80 63 -93 -27 -93 -36 0 -76 3 -88 6 -28 8 -19 34 11 34
30 0 49 41 40 87 -9 47 2 41 64 -34z m-2180 -23 c18 -31 36 -38 48 -19 6 11
23 -6 24 -23 0 -6 -80 -52 -132 -76 -10 -5 -48 74 -48 101 0 32 18 47 57 47
27 0 37 -6 51 -30z"/>
<path d="M1314 2846 c-9 -31 -9 -32 13 -28 26 5 27 8 10 39 -12 22 -13 22 -23
-11z"/>
<path d="M584 2576 c-19 -15 -19 -15 2 -36 20 -21 20 -21 38 -1 34 37 1 67
-40 37z"/>
<path d="M2407 2376 c-15 -12 -16 -18 -7 -35 12 -23 46 -28 53 -8 4 13 -12 57
-22 57 -3 0 -14 -7 -24 -14z"/>
<path d="M2637 1883 c-23 -4 -27 -8 -21 -26 15 -50 54 -48 54 3 0 16 -1 29 -2
29 -2 -1 -16 -4 -31 -6z"/>
<path d="M163 1573 c-7 -3 -13 -18 -13 -34 0 -24 4 -29 25 -29 21 0 25 5 25
29 0 29 -14 42 -37 34z"/>
<path d="M2496 1075 c-10 -28 -7 -35 19 -35 30 0 32 11 6 34 -17 15 -19 15
-25 1z"/>
<path d="M291 1071 c-12 -8 -13 -14 -3 -35 13 -29 21 -31 45 -13 16 11 16 14
2 35 -18 24 -23 26 -44 13z"/>
<path d="M1252 2644 c-287 -48 -534 -209 -697 -454 -117 -176 -168 -348 -168
-565 0 -152 18 -248 70 -380 56 -141 108 -219 223 -336 102 -104 164 -150 272
-205 l52 -27 411 -1 410 -2 58 28 c94 46 164 95 244 171 421 399 440 1046 44
1461 -86 89 -162 147 -264 201 -203 108 -433 146 -655 109z m187 -121 c9 -20
10 -75 5 -215 -6 -167 -9 -188 -24 -188 -15 0 -18 20 -23 183 -5 125 -4 194 4
215 13 39 22 40 38 5z m-341 -296 c70 -130 87 -170 76 -174 -8 -3 -16 -4 -18
-2 -2 2 -47 73 -100 157 -65 102 -98 166 -103 194 l-6 42 30 -24 c19 -15 66
-90 121 -193z m789 173 c-6 -44 -191 -350 -212 -350 -25 0 -22 14 21 90 23 43
61 115 83 159 33 65 92 141 110 141 2 0 1 -18 -2 -40z m-498 -196 c1 -61 -3
-83 -13 -87 -10 -4 -16 15 -25 76 -15 109 -14 130 7 173 l17 37 6 -59 c4 -32
7 -96 8 -140z m107 52 c-11 -120 -17 -145 -32 -139 -16 6 -18 50 -7 193 l6 93
20 -39 c16 -32 18 -49 13 -108z m-311 -77 c43 -101 58 -115 21 -21 -14 34 -21
62 -17 62 20 0 47 -33 63 -76 13 -35 16 -40 12 -16 -5 28 -3 32 15 32 12 0 21
-6 21 -14 0 -8 2 -21 5 -28 4 -9 -9 -18 -42 -28 -27 -8 -53 -16 -59 -17 -6 -2
-41 55 -78 127 l-67 130 44 -31 c36 -25 50 -45 82 -120z m529 21 c-37 -72 -73
-130 -80 -130 -20 0 -18 11 22 108 29 70 44 93 77 119 23 17 43 32 45 32 2 1
-27 -57 -64 -129z m-564 -165 c0 -1 -6 -5 -14 -8 -19 -8 -126 134 -137 182
-19 80 -6 71 71 -47 44 -68 80 -125 80 -127z m695 191 c-9 -56 -117 -209 -141
-199 -8 3 -14 9 -12 13 8 18 153 237 156 235 2 -2 0 -24 -3 -49z m-310 -58
c-6 -44 -26 -71 -41 -56 -2 3 1 40 7 83 12 76 12 77 26 51 10 -20 13 -42 8
-78z m-191 -1 c7 -54 6 -58 -11 -55 -25 5 -41 90 -22 124 12 23 14 23 20 7 3
-10 10 -44 13 -76z m295 1 c-12 -29 -23 -60 -26 -69 -4 -13 -11 -14 -44 -5
-27 7 -38 15 -34 24 3 7 5 20 5 28 0 8 9 14 21 14 18 0 20 -4 15 -32 -4 -24
-1 -19 12 16 16 44 43 76 64 76 4 0 -2 -24 -13 -52z m-565 -100 c25 -32 36
-54 32 -65 -6 -14 -13 -10 -46 22 -32 31 -40 46 -40 74 0 20 4 31 8 26 5 -6
26 -31 46 -57z m715 -34 c-32 -33 -59 -44 -59 -24 0 5 19 35 43 65 l42 55 3
-31 c3 -25 -4 -39 -29 -65z m-959 -42 c176 -107 179 -109 165 -94 -5 5 -59 42
-120 82 l-110 72 50 -4 c41 -4 62 -14 120 -57 39 -29 74 -57 78 -61 9 -8 -18
-70 -29 -70 -7 0 -169 85 -279 146 -34 18 -71 47 -83 63 l-22 30 38 -6 c22 -4
100 -44 192 -101z m1391 79 c-12 -16 -49 -45 -84 -64 -111 -62 -274 -147 -281
-147 -11 0 -38 62 -29 69 100 85 150 115 197 119 l51 4 -118 -77 c-65 -43
-116 -80 -113 -82 3 -3 17 4 33 15 85 59 295 181 319 185 16 2 33 5 37 6 5 0
-1 -12 -12 -28z m-896 -11 c-3 -5 -12 -10 -18 -10 -7 0 -6 4 3 10 19 12 23 12
15 0z m215 0 c0 -5 -7 -10 -16 -10 -8 0 -12 5 -9 10 3 6 10 10 16 10 5 0 9 -4
9 -10z m-260 -14 c0 -2 -8 -10 -17 -17 -16 -13 -17 -12 -4 4 13 16 21 21 21
13z m151 -22 c35 -27 33 -28 -13 -5 -16 8 -28 18 -28 23 0 12 3 11 41 -18z
m-360 -47 c-7 -7 -20 -4 -38 8 -16 11 -23 20 -15 23 6 2 12 10 12 18 0 10 9 6
25 -12 17 -18 22 -31 16 -37z m263 41 c12 -46 8 -57 -24 -56 -32 1 -35 5 -21
26 7 11 9 11 14 -2 4 -9 12 -16 18 -16 11 0 9 16 -6 53 -4 9 -3 17 3 17 5 0
12 -10 16 -22z m33 -15 c-3 -10 -5 -4 -5 12 0 17 2 24 5 18 2 -7 2 -21 0 -30z
m250 31 c-3 -3 -12 -4 -19 -1 -8 3 -5 6 6 6 11 1 17 -2 13 -5z m205 -25 c4 -3
-2 -15 -15 -27 -20 -19 -26 -20 -35 -9 -9 11 -7 20 11 39 12 14 24 20 26 14 2
-6 8 -14 13 -17z m-813 -16 c30 -28 39 -42 32 -52 -7 -11 -21 -4 -70 34 -34
26 -61 50 -61 51 0 2 13 4 29 4 19 0 42 -12 70 -37z m921 33 c0 -1 -27 -25
-61 -51 -49 -38 -63 -45 -70 -34 -14 21 65 89 102 89 16 0 29 -2 29 -4z m-730
-10 c0 -2 -8 -10 -17 -17 -16 -13 -17 -12 -4 4 13 16 21 21 21 13z m378 -27
c-6 -16 -12 -28 -14 -26 -5 5 13 57 20 57 3 0 0 -14 -6 -31z m82 26 c0 -7 -30
-13 -34 -7 -3 4 4 9 15 9 10 1 19 0 19 -2z m-164 -22 c-2 -27 33 -28 43 -1 6
14 10 17 10 8 1 -21 -19 -40 -40 -40 -22 0 -33 16 -25 35 7 20 14 19 12 -2z
m-235 -26 c12 -22 12 -22 -10 -3 -11 11 -21 23 -21 28 0 14 19 -1 31 -25z
m-36 -4 c29 -33 30 -39 9 -47 -11 -4 -14 -1 -12 13 2 10 -6 28 -16 40 -11 12
-16 21 -12 21 4 0 18 -12 31 -27z m230 17 c-3 -5 -13 -10 -21 -10 -8 0 -12 5
-9 10 3 6 13 10 21 10 8 0 12 -4 9 -10z m-481 -145 c-7 -18 -14 -16 -121 30
-62 27 -84 42 -106 75 l-29 41 131 -65 c99 -50 129 -70 125 -81z m757 127 c-7
-2 -18 1 -23 6 -8 8 -4 9 13 5 13 -4 18 -8 10 -11z m380 1 c-26 -46 -63 -73
-146 -108 -82 -34 -97 -36 -96 -9 0 5 236 132 249 134 1 0 -2 -8 -7 -17z
m-484 -7 c-8 -21 15 -36 44 -30 22 5 23 4 7 -9 -16 -13 -16 -15 6 -27 13 -7
29 -23 36 -36 7 -13 17 -21 22 -18 4 3 8 0 8 -5 0 -20 -19 -11 -51 24 -24 26
-38 34 -52 29 -16 -5 -19 -3 -15 14 5 16 -1 23 -23 31 -16 5 -29 15 -29 20 0
6 7 8 15 5 8 -4 15 -1 15 5 0 6 5 11 11 11 6 0 9 -6 6 -14z m-460 -12 c-3 -3
-12 -4 -19 -1 -8 3 -5 6 6 6 11 1 17 -2 13 -5z m228 -12 c-3 -3 -11 0 -18 7
-9 10 -8 11 6 5 10 -3 15 -9 12 -12z m-119 -20 c-17 -16 -18 -16 -5 5 7 12 15
20 18 17 3 -2 -3 -12 -13 -22z m-105 -12 c13 -11 17 -18 9 -15 -10 3 -20 -5
-28 -25 -14 -30 -37 -44 -26 -15 4 9 0 15 -9 15 -9 0 -19 4 -22 10 -4 6 6 7
26 3 23 -4 30 -3 25 5 -4 7 -1 12 6 12 8 1 6 6 -6 15 -11 8 -15 15 -9 15 6 0
21 -9 34 -20z m279 3 c0 -8 -12 -13 -30 -13 -18 0 -30 5 -30 13 0 8 12 13 30
13 18 0 30 -5 30 -13z m-395 -3 c3 -6 -1 -7 -9 -4 -18 7 -21 14 -7 14 6 0 13
-4 16 -10z m325 1 c0 -15 -58 -31 -64 -18 -2 7 -5 4 -5 -6 -1 -10 -5 -15 -11
-12 -5 3 -10 1 -10 -5 0 -6 -4 -8 -10 -5 -5 3 -10 10 -10 14 0 11 50 32 61 26
5 -4 9 -1 9 4 0 6 9 11 20 11 11 0 20 -4 20 -9z m120 -6 c0 -17 -2 -18 -24 -9
-23 9 -20 24 4 24 11 0 20 -7 20 -15z m290 -1 c0 -8 -4 -12 -10 -9 -5 3 -10
10 -10 16 0 5 5 9 10 9 6 0 10 -7 10 -16z m-706 -9 c-4 -8 -11 -15 -16 -15 -6
0 -5 6 2 15 7 8 14 15 16 15 2 0 1 -7 -2 -15z m461 3 c26 -12 32 -23 15 -33
-5 -3 -10 -1 -10 5 0 6 -4 8 -10 5 -5 -3 -10 -1 -10 5 0 6 -4 8 -10 5 -5 -3
-10 1 -10 9 0 19 2 19 35 4z m216 -17 c6 10 9 7 9 -10 0 -20 -2 -21 -15 -11
-8 7 -15 18 -14 24 0 6 3 5 6 -3 5 -11 7 -11 14 0z m-823 -52 c23 -9 29 -24
13 -33 -18 -11 -98 25 -120 54 l-22 30 53 -21 c29 -12 63 -25 76 -30z m1070
19 c-34 -43 -138 -74 -126 -36 3 8 126 65 147 67 2 1 -7 -13 -21 -31z m-738
11 c0 -6 -8 -13 -18 -16 -17 -4 -72 -83 -88 -125 -3 -10 -14 -19 -23 -19 -14
-1 -14 -2 2 -6 19 -5 23 -28 7 -38 -6 -4 -8 -11 -5 -16 4 -5 -6 -10 -22 -10
l-28 -1 30 -7 c30 -6 49 -41 23 -41 -9 0 -9 -3 -2 -8 18 -12 45 -72 38 -84 -4
-7 -3 -8 5 -4 7 4 18 -5 28 -23 10 -16 26 -32 35 -35 20 -5 25 -26 6 -26 -17
0 -100 89 -93 100 4 6 1 10 -5 10 -6 0 -9 4 -6 9 3 5 0 13 -7 19 -8 6 -44 0
-114 -21 -89 -26 -100 -32 -85 -43 11 -8 13 -16 7 -22 -11 -10 -113 -52 -126
-52 -21 0 19 44 56 61 22 11 30 17 17 15 -17 -3 -22 -1 -18 9 3 8 0 16 -7 18
-7 2 14 10 46 17 31 7 55 15 53 18 -3 2 -36 -3 -75 -12 -58 -13 -75 -14 -91
-4 -11 7 -20 16 -20 20 0 3 30 10 68 14 37 4 59 10 49 12 -10 2 -54 -1 -97 -7
-65 -9 -84 -8 -119 6 -22 9 -41 20 -41 25 0 4 42 9 93 9 50 1 137 5 192 9 61
5 8 6 -137 2 -177 -3 -249 -1 -284 8 l-46 13 32 14 c22 9 84 14 189 15 137 1
145 2 64 7 -50 3 -94 9 -98 12 -3 4 12 14 34 23 37 14 51 14 157 0 64 -8 124
-14 133 -12 9 2 -33 10 -94 19 -110 15 -110 15 -80 31 17 9 45 14 65 12 28 -3
31 -2 15 5 -11 5 -15 10 -8 10 7 1 10 7 7 15 -5 13 76 -7 232 -57 15 -5 26 0
42 18 12 14 17 25 11 25 -5 0 -7 5 -4 10 4 6 11 8 16 5 5 -3 6 0 3 8 -3 8 11
27 32 45 39 34 54 39 54 21z m366 -34 c25 -25 42 -49 40 -54 -3 -4 2 -18 10
-30 12 -16 21 -20 37 -15 153 50 238 71 233 59 -3 -8 0 -16 7 -18 7 -2 -26
-12 -72 -22 -47 -10 -81 -20 -75 -22 5 -2 49 6 98 16 84 18 91 19 120 3 l31
-16 -110 -15 c-60 -9 -103 -17 -94 -19 9 -2 69 4 133 12 106 14 120 14 157 0
22 -9 37 -19 34 -23 -4 -3 -48 -9 -98 -12 -81 -5 -73 -6 64 -7 104 -1 167 -6
188 -15 l32 -14 -43 -13 c-24 -8 -45 -13 -48 -13 -3 0 -111 3 -240 6 -148 3
-198 2 -135 -3 55 -4 142 -8 193 -9 50 0 92 -5 92 -10 0 -5 -18 -16 -40 -25
-33 -13 -52 -14 -108 -6 -37 5 -80 9 -97 9 -16 -1 4 -7 45 -13 l74 -11 -27
-18 c-25 -16 -31 -16 -98 -1 -39 9 -72 14 -75 12 -2 -3 22 -11 53 -18 32 -7
53 -15 46 -17 -7 -2 -10 -10 -7 -18 4 -10 -1 -12 -18 -9 -13 2 -4 -4 19 -15
38 -18 77 -61 54 -61 -18 0 -131 53 -131 61 0 4 7 12 16 17 11 6 -14 17 -88
39 -70 21 -107 27 -115 21 -7 -6 -10 -14 -7 -19 3 -5 0 -9 -6 -9 -6 0 -9 -4
-5 -10 6 -10 -78 -100 -94 -100 -18 0 -12 22 7 26 9 3 25 19 35 35 10 18 21
27 28 23 8 -4 9 -3 5 4 -7 12 20 72 38 84 7 5 7 8 -2 8 -26 0 -7 35 23 41 l30
7 -28 1 c-16 0 -26 5 -22 10 3 5 1 12 -5 16 -16 10 -11 35 8 36 14 1 14 2 1 6
-19 5 -52 70 -43 85 4 6 2 8 -4 4 -6 -3 -18 7 -28 23 -10 16 -26 32 -36 34
-10 3 -18 10 -18 16 0 22 22 10 66 -34z m198 16 c-2 -3 -12 3 -22 13 -16 17
-16 18 5 5 12 -7 20 -15 17 -18z m-389 11 c-11 -9 -87 -33 -101 -31 -10 1 85
37 101 38 6 1 6 -2 0 -7z m-335 -27 c0 -25 -18 -25 -22 -1 -4 17 -1 23 9 19 7
-3 13 -11 13 -18z m690 7 c0 -9 -44 -32 -58 -32 -9 1 41 39 51 40 4 0 7 -4 7
-8z m-221 -6 c-9 -9 -171 -66 -186 -66 -28 0 -8 10 78 40 77 27 119 37 108 26z
m-39 -61 c-19 -7 -42 -13 -50 -13 -8 0 1 6 20 13 19 7 42 13 50 13 8 0 -1 -6
-20 -13z m90 -20 c-7 -8 -18 -15 -24 -15 -8 0 -8 3 0 8 6 4 14 16 18 27 6 13
10 16 13 7 3 -7 -1 -19 -7 -27z m-141 -17 c4 7 12 8 21 2 17 -10 13 -17 -15
-22 -13 -2 -20 3 -22 17 -1 11 0 14 3 6 4 -9 9 -10 13 -3z m-172 -24 c-9 -9
-28 6 -21 18 4 6 10 6 17 -1 6 -6 8 -13 4 -17z m103 -23 c0 -18 4 -22 17 -17
16 6 16 5 1 -11 -13 -15 -14 -28 -7 -78 6 -32 12 -61 13 -63 2 -2 30 10 62 26
64 33 65 32 -31 47 l-40 7 63 35 c38 21 62 41 62 52 0 20 19 41 37 41 7 0 18
-10 24 -22 10 -18 8 -24 -7 -34 -11 -7 -25 -18 -31 -24 -7 -6 -15 -10 -18 -9
-3 1 -20 -5 -38 -12 l-32 -14 49 -10 c27 -6 51 -15 53 -21 2 -5 -26 -24 -62
-42 -65 -33 -87 -52 -63 -52 9 0 9 -3 -2 -10 -23 -15 -26 -13 -39 30 -6 22
-14 40 -17 40 -3 0 -26 -14 -51 -31 -53 -37 -119 -50 -129 -26 -3 9 -1 29 4
44 l10 28 1 -28 c1 -41 25 -43 96 -7 51 26 65 38 65 56 0 34 -10 54 -28 54 -8
0 -23 7 -33 16 -16 14 -18 14 -29 -6 -14 -26 -68 -60 -96 -60 -14 0 -24 8 -28
23 -11 40 -7 48 14 27 26 -26 29 -26 89 15 42 29 52 33 57 20 3 -8 15 -15 25
-15 12 0 16 5 13 15 -4 8 -3 27 1 42 5 21 8 24 16 12 5 -7 9 -25 9 -38z m-140
29 c0 -5 -4 -10 -10 -10 -5 0 -10 5 -10 10 0 6 5 10 10 10 6 0 10 -4 10 -10z
m74 -141 c-3 -5 -10 -7 -15 -3 -5 3 -7 10 -3 15 3 5 10 7 15 3 5 -3 7 -10 3
-15z m-43 -2 c-1 -12 -15 -9 -19 4 -3 6 1 10 8 8 6 -3 11 -8 11 -12z m286 -53
c-3 -3 -12 -4 -19 -1 -8 3 -5 6 6 6 11 1 17 -2 13 -5z m140 -36 c-3 -7 -5 -2
-5 12 0 14 2 19 5 13 2 -7 2 -19 0 -25z m-362 -8 c-27 -12 -43 -12 -25 0 8 5
22 9 30 9 10 0 8 -3 -5 -9z m220 -8 c-3 -3 -11 0 -18 7 -9 10 -8 11 6 5 10 -3
15 -9 12 -12z m-526 -1 c9 -6 10 -11 2 -15 -15 -9 -14 -26 1 -26 6 0 19 6 28
13 9 6 6 3 -5 -8 -12 -12 -20 -27 -17 -35 2 -8 -6 -4 -16 10 -11 13 -18 28
-15 33 2 4 -1 14 -7 22 -10 12 -10 15 1 15 8 0 20 -4 28 -9z m91 5 c0 -2 -7
-7 -16 -10 -8 -3 -12 -2 -9 4 6 10 25 14 25 6z m547 -28 c-3 -7 -5 -2 -5 12 0
14 2 19 5 13 2 -7 2 -19 0 -25z m109 -1 c1 -23 1 -23 -3 -3 -3 18 -9 23 -24
19 -11 -3 -19 0 -19 7 0 6 10 10 23 8 16 -2 22 -10 23 -31z m-399 1 c-3 -8 -6
-5 -6 6 -1 11 2 17 5 13 3 -3 4 -12 1 -19z m-443 -13 c4 -11 -27 -32 -125 -81
l-131 -65 29 42 c24 35 44 48 119 80 105 44 100 43 108 24z m786 5 c8 -5 11
-10 5 -10 -5 0 -17 5 -25 10 -8 5 -10 10 -5 10 6 0 17 -5 25 -10z m217 -31
c72 -29 109 -57 134 -102 7 -12 -34 4 -120 48 -101 50 -129 68 -124 81 3 8 11
13 19 10 7 -3 48 -19 91 -37z m-287 21 c0 -5 -5 -10 -11 -10 -5 0 -7 5 -4 10
3 6 8 10 11 10 2 0 4 -4 4 -10z m-570 -4 c0 -2 -8 -10 -17 -17 -16 -13 -17
-12 -4 4 13 16 21 21 21 13z m20 -9 c0 -2 -10 -12 -22 -23 l-23 -19 19 23 c18
21 26 27 26 19z m180 -29 c0 8 8 8 30 1 17 -6 30 -15 30 -20 0 -12 -27 -11
-35 1 -4 6 -10 8 -15 5 -10 -6 -60 15 -60 25 0 18 15 17 31 -2 11 -11 19 -16
19 -10z m250 13 c0 -7 -43 -31 -55 -31 -3 0 -5 7 -5 16 0 8 4 13 9 9 6 -3 16
1 23 9 13 14 28 12 28 -3z m160 13 c0 -8 -19 -13 -24 -6 -3 5 1 9 9 9 8 0 15
-2 15 -3z m30 -6 c0 -6 -10 -22 -22 -35 -12 -12 -22 -33 -23 -45 -2 -17 -8
-22 -22 -21 -11 1 -29 -7 -38 -17 -21 -24 -43 -27 -24 -4 10 13 10 17 -2 25
-10 7 -6 8 14 3 23 -5 27 -3 27 16 0 15 5 20 14 17 14 -6 63 49 59 65 -2 4 2
8 7 8 6 0 10 -5 10 -12z m-754 -30 c19 -36 25 -29 -97 -114 -53 -36 -73 -45
-100 -42 -33 3 -31 5 79 77 61 40 112 75 112 77 0 7 -33 -12 -176 -102 -74
-46 -153 -88 -176 -93 -23 -6 -43 -9 -45 -8 -1 2 9 17 23 34 14 19 64 52 122
82 53 27 126 66 162 85 36 20 68 36 72 36 4 0 15 -14 24 -32z m645 5 c-12 -20
-14 -14 -5 12 4 9 9 14 11 11 3 -2 0 -13 -6 -23z m348 -45 c194 -102 191 -100
218 -135 l24 -31 -45 9 c-29 5 -92 38 -179 93 -74 46 -145 89 -158 96 -47 24
-3 -9 106 -79 l110 -71 -41 0 c-34 0 -55 10 -124 60 -46 33 -86 62 -88 64 -5
5 27 66 34 66 4 0 68 -32 143 -72z m-499 37 c0 -8 -9 -15 -20 -15 -22 0 -27
15 -7 23 21 9 27 7 27 -8z m-50 -4 c0 -13 -27 -21 -45 -15 -25 10 -17 24 15
24 17 0 30 -4 30 -9z m-281 -18 c-11 -13 -11 -17 -1 -20 6 -3 12 -9 12 -15 0
-16 28 -39 50 -41 11 -1 20 -5 20 -9 0 -11 -18 -10 -43 4 -12 6 -36 11 -54 10
-17 -2 -34 2 -38 8 -4 7 2 9 19 4 22 -5 26 -3 26 15 0 19 -2 20 -21 9 -17 -11
-22 -10 -35 6 -21 30 -17 42 6 15 l20 -24 21 28 c11 15 23 27 26 27 3 0 -1 -7
-8 -17z m36 7 c3 -5 1 -10 -4 -10 -6 0 -11 5 -11 10 0 6 2 10 4 10 3 0 8 -4
11 -10z m407 -32 c-8 -8 -9 -4 -5 13 4 13 8 18 11 10 2 -7 -1 -18 -6 -23z
m-22 18 c0 -2 -8 -10 -17 -17 -16 -13 -17 -12 -4 4 13 16 21 21 21 13z m-547
-20 c9 -22 -53 -73 -97 -79 -45 -7 -43 -3 34 57 51 40 56 41 63 22z m828 -32
c33 -25 58 -48 56 -51 -3 -2 -23 0 -44 6 -42 12 -99 63 -89 80 10 16 12 15 77
-35z m-331 32 c0 -3 -4 -8 -10 -11 -5 -3 -10 -1 -10 4 0 6 5 11 10 11 6 0 10
-2 10 -4z m-467 -29 c3 -8 -6 -27 -19 -42 -18 -21 -24 -24 -24 -12 0 10 -5 17
-12 17 -6 0 -1 11 12 25 27 28 36 31 43 12z m250 6 c-7 -2 -21 -2 -30 0 -10 3
-4 5 12 5 17 0 24 -2 18 -5z m287 -37 c0 -6 -7 -1 -15 10 -8 10 -15 23 -15 28
0 6 7 1 15 -10 8 -10 15 -23 15 -28z m211 -4 c-6 -2 -11 -11 -11 -19 0 -11 -8
-7 -25 12 -18 22 -21 32 -13 42 9 11 15 9 35 -9 13 -12 19 -24 14 -26z m-456
28 c-3 -5 -16 -10 -28 -9 -20 1 -20 2 3 9 14 4 26 8 28 9 2 1 0 -3 -3 -9z m70
-15 c-16 -13 -34 -24 -39 -25 -6 0 5 11 24 25 44 32 54 32 15 0z m66 9 c10
-13 10 -17 -2 -25 -23 -14 -30 -10 -19 10 7 14 6 21 -3 24 -7 4 -8 6 -1 6 6 1
17 -6 25 -15z m-414 -61 c-15 -21 -36 -49 -47 -63 l-20 -25 0 35 c0 26 9 43
37 72 47 49 68 35 30 -19z m489 22 c-6 -16 -46 -21 -46 -5 0 5 7 7 16 3 10 -4
17 2 21 18 4 13 8 18 11 11 2 -7 1 -19 -2 -27z m244 -75 l0 -35 -20 25 c-50
63 -71 100 -65 110 5 8 21 -1 46 -26 31 -30 39 -45 39 -74z m-441 50 c5 0 11
6 14 13 4 10 7 10 18 0 7 -7 22 -13 34 -13 15 0 17 2 6 9 -7 5 -9 11 -4 14 12
8 53 -3 53 -13 0 -7 -66 -25 -80 -22 -3 0 -25 3 -49 6 -43 4 -69 16 -38 16 10
0 17 8 18 18 0 13 2 12 9 -5 5 -13 14 -23 19 -23z m-229 14 c0 -2 -36 -58 -80
-125 -77 -118 -89 -126 -71 -48 11 48 118 190 137 182 8 -3 14 -7 14 -9z m625
-61 c52 -68 82 -137 73 -165 -2 -6 -39 43 -82 107 -60 90 -75 120 -64 126 7 5
14 9 14 9 1 0 28 -34 59 -77z m-482 60 c-7 -2 -21 -2 -30 0 -10 3 -4 5 12 5
17 0 24 -2 18 -5z m-113 -25 c0 -11 -51 -109 -156 -303 -9 -16 -30 -41 -47
-55 l-30 -24 6 41 c5 27 40 95 104 197 86 139 123 182 123 144z m604 -144 c69
-109 100 -168 104 -197 l5 -41 -30 24 c-17 14 -41 45 -55 70 -94 175 -148 279
-148 289 0 37 38 -8 124 -145z m-564 124 c0 -7 -16 -52 -37 -101 -30 -70 -44
-92 -75 -112 -21 -14 -38 -22 -38 -19 0 3 28 60 62 125 55 105 88 144 88 107z
m488 -107 c34 -65 62 -122 62 -126 0 -3 -17 6 -39 21 -30 22 -46 46 -75 114
-39 94 -43 110 -23 110 7 0 41 -54 75 -119z m-455 103 c13 -5 13 -11 -1 -55
-14 -41 -56 -90 -66 -78 -3 4 47 139 51 139 1 0 8 -3 16 -6z m403 -131 c-12
-12 -53 32 -68 75 -12 30 -16 36 -13 17 5 -26 2 -31 -15 -32 -11 -1 -20 4 -20
12 0 7 -2 20 -5 27 -4 10 6 17 32 24 l38 9 28 -64 c15 -35 25 -66 23 -68z
m-350 101 c-3 -9 -6 -22 -6 -29 0 -8 -9 -13 -20 -12 -22 1 -22 2 -14 35 4 13
14 22 26 22 14 0 18 -5 14 -16z m40 -41 c-4 -27 -9 -61 -12 -76 -6 -29 -6 -29
-21 -7 -11 16 -13 34 -8 68 8 56 11 62 32 62 13 0 14 -8 9 -47z m44 -28 c0
-34 -3 -97 -7 -140 l-6 -78 -18 34 c-22 40 -23 67 -8 176 9 61 15 80 25 76 10
-4 14 -24 14 -68z m105 -65 c6 -62 3 -82 -13 -118 l-19 -42 -6 91 c-10 140 -9
197 6 202 15 5 23 -31 32 -133z m39 87 c6 -36 5 -55 -7 -78 l-14 -31 -7 49
c-4 26 -10 63 -13 81 -5 29 -3 33 13 30 14 -2 21 -16 28 -51z m-90 -143 c5
-137 4 -194 -6 -220 -6 -19 -15 -34 -18 -34 -4 0 -12 17 -18 39 -8 27 -10 93
-5 220 5 161 8 181 23 181 15 0 18 -21 24 -186z"/>
<path d="M955 1724 c28 -7 57 -13 65 -13 8 0 -7 7 -35 15 -27 7 -57 13 -65 13
-8 0 8 -7 35 -15z"/>
<path d="M1048 1703 c6 -2 18 -2 25 0 6 3 1 5 -13 5 -14 0 -19 -2 -12 -5z"/>
<path d="M1098 1693 c7 -3 16 -2 19 1 4 3 -2 6 -13 5 -11 0 -14 -3 -6 -6z"/>
<path d="M1023 1673 c9 -2 25 -2 35 0 9 3 1 5 -18 5 -19 0 -27 -2 -17 -5z"/>
<path d="M1103 1663 c9 -2 23 -2 30 0 6 3 -1 5 -18 5 -16 0 -22 -2 -12 -5z"/>
<path d="M903 1643 c32 -2 81 -2 110 0 29 2 3 3 -58 3 -60 0 -84 -1 -52 -3z"/>
<path d="M1098 1583 c6 -2 18 -2 25 0 6 3 1 5 -13 5 -14 0 -19 -2 -12 -5z"/>
<path d="M1023 1573 c9 -2 25 -2 35 0 9 3 1 5 -18 5 -19 0 -27 -2 -17 -5z"/>
<path d="M948 1563 c12 -2 30 -2 40 0 9 3 -1 5 -23 4 -22 0 -30 -2 -17 -4z"/>
<path d="M1048 1543 c7 -3 16 -2 19 1 4 3 -2 6 -13 5 -11 0 -14 -3 -6 -6z"/>
<path d="M1008 1533 c7 -3 16 -2 19 1 4 3 -2 6 -13 5 -11 0 -14 -3 -6 -6z"/>
<path d="M1768 1703 c6 -2 18 -2 25 0 6 3 1 5 -13 5 -14 0 -19 -2 -12 -5z"/>
<path d="M1728 1693 c7 -3 16 -2 19 1 4 3 -2 6 -13 5 -11 0 -14 -3 -6 -6z"/>
<path d="M1783 1673 c9 -2 25 -2 35 0 9 3 1 5 -18 5 -19 0 -27 -2 -17 -5z"/>
<path d="M1713 1663 c9 -2 23 -2 30 0 6 3 -1 5 -18 5 -16 0 -22 -2 -12 -5z"/>
<path d="M1833 1643 c32 -2 81 -2 110 0 29 2 3 3 -58 3 -60 0 -84 -1 -52 -3z"/>
<path d="M1718 1583 c6 -2 18 -2 25 0 6 3 1 5 -13 5 -14 0 -19 -2 -12 -5z"/>
<path d="M1783 1573 c9 -2 25 -2 35 0 9 3 1 5 -18 5 -19 0 -27 -2 -17 -5z"/>
<path d="M1858 1563 c12 -2 30 -2 40 0 9 3 -1 5 -23 4 -22 0 -30 -2 -17 -4z"/>
<path d="M1778 1543 c7 -3 16 -2 19 1 4 3 -2 6 -13 5 -11 0 -14 -3 -6 -6z"/>
<path d="M1818 1533 c7 -3 16 -2 19 1 4 3 -2 6 -13 5 -11 0 -14 -3 -6 -6z"/>
<path d="M1020 634 c-179 -9 -546 -46 -557 -57 -9 -9 -2 -49 29 -172 22 -88
43 -163 46 -167 4 -3 93 3 197 15 162 17 256 20 645 21 401 0 482 -2 685 -22
127 -12 236 -25 242 -27 17 -6 29 19 42 85 5 30 19 98 31 150 11 52 18 100 16
106 -6 16 -39 20 -301 45 -166 15 -316 21 -610 23 -214 2 -424 2 -465 0z m237
-88 c15 -13 25 -27 21 -31 -3 -4 -16 3 -27 14 -17 17 -34 21 -81 21 l-60 0 0
-95 c0 -79 3 -97 16 -102 23 -9 50 11 46 33 -2 15 7 22 43 30 53 12 61 1 10
-16 -27 -9 -35 -17 -35 -36 0 -22 -4 -24 -45 -24 -27 0 -45 5 -45 12 0 6 -8 4
-19 -6 -14 -13 -35 -17 -82 -16 -35 0 -83 -2 -107 -6 -36 -6 -48 -3 -82 21
-22 15 -40 34 -40 42 0 11 -6 9 -26 -6 -15 -12 -33 -21 -40 -21 -9 0 -14 -11
-14 -30 0 -29 -2 -30 -44 -30 l-44 0 -6 48 c-3 26 -8 77 -12 113 l-6 66 63 6
c44 4 73 2 92 -8 22 -11 27 -11 27 -1 0 14 78 32 88 21 4 -3 8 -35 10 -70 l4
-65 39 0 c44 0 45 0 23 42 -12 24 -13 35 -4 58 20 48 101 67 148 34 21 -14 22
-14 22 5 0 19 6 21 69 21 59 0 74 -4 98 -24z m233 20 c0 -2 -7 -9 -15 -16 -12
-10 -15 -10 -15 4 0 9 7 16 15 16 8 0 15 -2 15 -4z m128 -12 c20 -14 22 -14
22 1 0 15 12 16 103 10 155 -9 165 -12 183 -47 l16 -30 26 31 c24 28 31 31 66
25 l38 -7 -4 -76 -5 -76 18 40 c10 22 25 57 34 79 13 32 19 37 38 32 12 -3 33
-6 47 -6 24 0 27 -6 53 -116 16 -64 27 -117 25 -118 -2 -2 -24 -1 -50 2 -33 3
-48 9 -48 18 0 17 -31 19 -47 3 -8 -8 -37 -9 -91 -4 -78 7 -79 7 -75 33 4 25
3 26 -10 10 -8 -10 -18 -18 -22 -18 -4 0 -14 8 -21 18 -12 16 -13 15 -14 -5 0
-21 -5 -23 -47 -23 l-48 0 3 66 c4 62 -8 98 -25 80 -4 -4 -9 -39 -11 -78 l-4
-70 -30 6 c-17 3 -37 6 -44 6 -11 0 -14 17 -14 70 0 74 -10 88 -29 41 -13 -30
-43 -51 -79 -54 -17 -1 -22 -7 -22 -29 0 -26 -2 -28 -45 -28 l-45 0 0 38 c0
20 5 44 10 52 7 11 10 4 10 -27 0 -41 1 -43 30 -43 25 0 30 4 30 25 0 19 5 25
21 25 23 0 60 18 71 34 4 6 8 23 8 38 0 30 -40 68 -72 68 -11 0 -16 5 -13 10
9 15 37 12 63 -6z m-413 -74 c0 -8 -8 -16 -17 -18 -13 -2 -18 3 -18 18 0 15 5
20 18 18 9 -2 17 -10 17 -18z m370 0 c0 -8 -8 -16 -17 -18 -13 -2 -18 3 -18
18 0 15 5 20 18 18 9 -2 17 -10 17 -18z"/>
<path d="M980 543 c-28 -11 -50 -36 -50 -59 0 -27 44 -64 76 -64 28 0 40 -16
18 -24 -21 -8 -21 -8 -36 8 -12 12 -18 11 -39 -5 -23 -17 -23 -19 -6 -36 12
-13 33 -18 68 -18 41 0 54 4 70 24 10 13 19 29 19 37 0 22 -38 54 -71 61 -16
3 -32 10 -36 16 -4 6 5 8 24 4 19 -4 38 -1 49 8 17 12 17 15 4 28 -17 17 -68
28 -90 20z"/>
<path d="M782 458 c5 -64 9 -74 34 -95 19 -15 42 -23 67 -23 33 0 37 3 37 25
0 22 -4 25 -34 25 l-35 0 -7 70 c-7 70 -7 70 -37 70 l-30 0 5 -72z"/>
<path d="M626 513 l-28 -5 7 -86 c4 -48 9 -90 12 -94 2 -5 17 -8 32 -8 25 0
27 3 23 30 -4 26 -1 30 20 30 40 0 68 27 68 66 0 63 -37 81 -134 67z m74 -68
c0 -8 -9 -15 -20 -15 -11 0 -20 7 -20 15 0 8 9 15 20 15 11 0 20 -7 20 -15z"/>
<path d="M1082 481 c-10 -6 -10 -10 3 -21 13 -11 15 -9 15 9 0 24 0 24 -18 12z"/>
<path d="M1650 525 c0 -20 5 -25 26 -25 26 0 26 0 22 -75 l-3 -75 33 0 32 0 0
70 c0 68 1 70 25 70 20 0 25 5 25 24 0 28 -21 36 -102 36 -55 0 -58 -1 -58
-25z"/>
<path d="M1830 461 c0 -44 -3 -86 -6 -95 -4 -11 2 -17 21 -22 33 -8 44 6 45
56 l1 35 21 -39 20 -40 30 35 30 34 -6 -47 c-6 -48 -5 -48 24 -48 33 0 34 5
44 133 l5 67 -32 0 c-25 0 -37 -7 -56 -35 -13 -19 -27 -35 -31 -35 -4 0 -15
18 -25 40 -16 35 -22 40 -52 40 l-33 0 0 -79z"/>
<path d="M2131 498 c-5 -13 -23 -54 -40 -91 -17 -38 -31 -71 -31 -73 0 -9 59
-3 65 6 9 15 41 12 59 -5 8 -8 29 -18 47 -22 27 -5 31 -4 26 13 -3 10 -13 54
-23 98 -15 64 -22 80 -42 87 -37 14 -52 11 -61 -13z m49 -89 c0 -11 -7 -19
-16 -19 -11 0 -14 5 -10 16 3 9 6 20 6 25 0 6 5 7 10 4 6 -3 10 -15 10 -26z"/>
<path d="M330 359 c-58 -10 -111 -18 -117 -19 -25 0 -12 -18 35 -49 95 -62 92
-51 23 -127 -34 -37 -59 -69 -57 -71 2 -2 53 5 112 17 60 11 165 28 234 38
106 15 125 20 128 36 3 16 -1 18 -30 13 -18 -4 -63 -9 -99 -13 l-67 -7 -11 52
c-6 28 -16 74 -22 101 -6 28 -14 50 -17 49 -4 -1 -54 -9 -112 -20z"/>
<path d="M2406 363 c-3 -10 -12 -54 -21 -98 -9 -44 -19 -83 -23 -87 -4 -3 -47
-2 -95 4 -48 6 -91 8 -94 5 -13 -14 11 -25 69 -31 60 -7 303 -47 378 -62 l35
-7 -63 68 c-34 37 -62 72 -62 76 0 5 27 27 60 49 56 38 74 60 50 60 -14 0
-192 30 -212 36 -10 3 -18 -2 -22 -13z"/>
</g>
</svg>
